<?xml version="1.0" encoding="UTF-8" standalone="no"?>
<!-- Created with Inkscape (http://www.inkscape.org/) -->
<svg
 xmlns="http://www.w3.org/2000/svg"
 xmlns:xlink="http://www.w3.org/1999/xlink"
 width="640"
 height="600">
<path
 d="m 341.01131,377.08633 8.92553,-5.15315 61.7492,76.25391 -36.10373,20.84449 -34.571,-91.94525 z"
 style="fill:#000;stroke:#000;stroke-width:1" />
<path
 d="m 310.20166,146.51901 0,100.0051 m 164.42098,96.79338 -7.37226,27.51362 m -24.29011,-35.99753 -7.37226,27.51362 m -23.86508,-35.88364 -7.37226,27.51362 m -23.45698,-35.77429 -7.37226,27.51362 m -200.80173,48.33535 82.50377,-47.63357"
 style="fill:none;stroke:#000;stroke-width:10" />
<path
 d="m 341.90775,330.34067 13.73535,3.46924 c -2.87933,11.28094 -8.05958,19.88323 -15.54077,25.80688 -7.48136,5.92367 -16.62645,8.8855 -27.43531,8.8855 -11.18657,0 -20.28446,-2.27743 -27.2937,-6.83228 -7.0093,-4.55484 -12.34295,-11.1511 -16.00098,-19.78881 -3.65804,-8.63767 -5.48706,-17.91256 -5.48706,-27.82471 0,-10.80886 2.06502,-20.23715 6.19507,-28.28491 4.13003,-8.0476 10.00649,-14.16007 17.6294,-18.33741 7.62284,-4.17714 16.01273,-6.26576 25.16968,-6.26587 10.38404,1.1e-4 19.11613,2.64334 26.19628,7.92969 7.07999,5.28655 12.01244,12.72063 14.79737,22.30225 l -13.52295,3.18603 c -2.40731,-7.552 -5.90014,-13.05086 -10.47852,-16.49658 -4.57852,-3.44554 -10.33697,-5.16836 -17.27539,-5.16846 -7.97693,1e-4 -14.644,1.91172 -20.00122,5.73487 -5.35729,3.82332 -9.12153,8.95638 -11.29272,15.39917 -2.17125,6.44293 -3.25686,13.0864 -3.25684,19.93042 -2e-5,8.82654 1.28619,16.53202 3.85864,23.11645 2.5724,6.5845 6.57264,11.50515 12.00074,14.76197 5.42801,3.25684 11.30447,4.88526 17.62939,4.88525 7.69362,10e-6 14.20729,-2.21841 19.54102,-6.65527 5.33357,-4.43683 8.94441,-11.0213 10.83252,-19.75342 z"
 id="C"
 fill="#000" />
<path
 d="m 269.49121,133.38702 0,-103.793941 13.73535,0 0,42.62207 53.9502,0 0,-42.62207 13.73535,0 0,103.793941 -13.73535,0 0,-48.923336 -53.9502,0 0,48.923336 z"
 fill="#000" />
<path
 d="m 137.8159,483.53156 0,-103.79395 12.74414,0 0,103.79395 z"
 id="L"
 fill="#000" />
<use
 transform="translate(-234.17046,116.79929)"
 xlink:href="#C" />
<use
 transform="translate(116.70853,201.90463)"
 xlink:href="#C" />
<use
 transform="translate(225.55469,60.645113)"
 xlink:href="#C" />
<use
 transform="translate(350.87898,85.105344)"
 xlink:href="#L" />
<use
 transform="translate(459.72514,-56.154177)"
 xlink:href="#L" />
</svg>
